<?xml version="1.0" encoding="UTF-8" standalone="no"?>
<!-- Created with Inkscape (http://www.inkscape.org/) -->

<svg
   version="1.1"
   id="svg782"
   width="832"
   height="670.66669"
   viewBox="0 0 832 670.66669"
   sodipodi:docname="icon.svg"
   inkscape:version="1.2.2 (b0a8486541, 2022-12-01)"
   xmlns:inkscape="http://www.inkscape.org/namespaces/inkscape"
   xmlns:sodipodi="http://sodipodi.sourceforge.net/DTD/sodipodi-0.dtd"
   xmlns="http://www.w3.org/2000/svg"
   xmlns:svg="http://www.w3.org/2000/svg">
  <defs
     id="defs786" />
  <sodipodi:namedview
     id="namedview784"
     pagecolor="#505050"
     bordercolor="#eeeeee"
     borderopacity="1"
     inkscape:showpageshadow="0"
     inkscape:pageopacity="0"
     inkscape:pagecheckerboard="0"
     inkscape:deskcolor="#505050"
     showgrid="false"
     inkscape:zoom="0.7939136"
     inkscape:cx="211.60993"
     inkscape:cy="451.56047"
     inkscape:window-width="1920"
     inkscape:window-height="959"
     inkscape:window-x="0"
     inkscape:window-y="0"
     inkscape:window-maximized="1"
     inkscape:current-layer="g788" />
  <g
     inkscape:groupmode="layer"
     inkscape:label="Image"
     id="g788">
    <g
       id="g1411"
       transform="translate(-52.465067,113.15613)">
      <g
         id="g1460"
         transform="translate(49.744731,-112.89111)">
        <path
           style="fill:#fdfdfd;stroke-width:1.33333"
           d="M 135.50063,663.27664 C 71.400752,650.43452 25.938928,599.61083 19.862589,534.00002 c -2.799792,-30.23147 -0.783168,-222.1316 2.474687,-235.48878 7.770295,-31.85819 23.181628,-57.05584 47.996057,-78.47397 9.76986,-8.43268 9.633282,-7.68338 3.687866,-20.23221 C 58.341893,166.71119 58.897284,118.60825 75.350575,84.66667 116.22035,0.35618829 226.89552,-20.413454 294.65847,43.510679 c 17.4156,16.428999 27.5029,32.084133 37.15433,57.662201 2.80559,7.43533 5.41487,13.83257 5.7984,14.21611 0.38353,0.38353 2.67729,-4.87209 5.09724,-11.67916 15.4022,-43.324893 43.7244,-73.617681 82.58445,-88.330467 115.63612,-43.780928 225.4461,72.158864 175.81035,185.624427 l -5.39689,12.33711 12.59265,11.91767 c 27.08431,25.63252 41.75711,56.13433 45.17579,93.9114 0.80449,8.88985 1.67806,16.38967 1.94128,16.66624 0.26321,0.27659 24.34194,-12.89215 53.5083,-29.26383 58.31147,-32.73142 59.08178,-33.09642 70.02562,-33.18052 19.4731,-0.14962 35.49376,12.44695 40.45373,31.8076 3.32005,12.95947 2.24885,238.23821 -1.17479,247.05993 -5.71862,14.73528 -20.09198,25.08062 -36.29021,26.12015 -13.33023,0.85548 -13.28952,0.87365 -71.80745,-32.05048 -28.6722,-16.13193 -52.7869,-29.58338 -53.5882,-29.89208 -0.9582,-0.36916 -1.97398,5.0513 -2.96727,15.8342 -5.92744,64.34591 -44.76096,111.43855 -106.65572,129.33928 l -10.25341,2.96542 -196,0.26857 c -161.94455,0.22189 -197.59263,-0.0505 -205.16604,-1.56781 z m 387.75848,-16.63456 c 58.59025,-5.69656 104.15576,-49.33047 111.32641,-106.60709 1.87291,-14.96007 1.89461,-210.96278 0.0252,-227.36831 -3.96856,-34.82691 -25.59471,-69.4977 -54.81817,-87.88387 l -10.20748,-6.42211 5.78769,-8.94685 C 629.90027,125.12293 561.66736,13.599804 462.78651,25.397532 399.66015,32.9293 356.81232,80.849284 356.73769,144.00001 c -0.0301,25.44445 2.41439,35.28792 14.98271,60.33333 0.276,0.55 -15.02473,1 -34.00164,1 h -34.50347 l 4.91308,-10.33333 C 338.64821,130.80974 305.12089,52.288015 238,30.757809 173.7236,10.140025 108.04588,43.593162 86.352297,108 c -4.156638,12.3408 -4.266172,13.26697 -4.257545,36.00001 0.0112,29.55236 4.131695,44.01804 18.910588,66.38897 2.56363,3.8806 4.4362,7.22383 4.16124,7.42937 -0.27495,0.20556 -3.49991,2.07319 -7.16658,4.15028 -31.514251,17.85221 -54.612384,52.93529 -59.252188,89.99641 -1.900264,15.17862 -1.917435,212.69704 -0.01983,228.06995 6.944498,56.2588 53.056478,101.0665 109.642258,106.54102 16.08248,1.55593 358.94381,1.61636 374.88887,0.0661 z M 242.66667,489.49968 c -15.8453,-5.21688 -27.11063,-17.90336 -30.04303,-33.833 l -0.92041,-5 h 41.54213 41.54215 l -0.8796,5 c -4.09091,23.25436 -30.47004,40.67168 -51.24124,33.833 z m 165.76557,-0.67186 C 393.0436,483.7937 382.19089,471.38668 379.42543,455.66668 l -0.8796,-5 H 420 461.45417 l -0.8796,5 c -4.3067,24.48104 -29.56736,40.54615 -52.14233,33.16114 z m 380.23443,68.66456 c 14.5567,-6.68447 13.87484,-0.28256 13.93404,-130.8257 0.0596,-131.31667 0.59369,-126.68014 -15.293,-132.74732 -9.59576,-3.66466 -12.51222,-2.43167 -69.79195,29.50602 -55.75676,31.08853 -60.54885,34.2139 -63.67997,41.53181 -3.43187,8.02078 -2.61428,116.59275 0.93317,123.92079 3.29268,6.80178 1.67387,5.77549 63.89771,40.50951 61.00666,34.05456 58.8922,33.20561 70,28.10489 z"
           id="path1443" />
        <path
           style="fill:#ebebeb;stroke-width:1.33333"
           d="m 248.43729,665.66681 c 49.74051,-0.19368 130.74051,-0.19365 180,7e-5 49.2595,0.19373 8.56271,0.3522 -90.43729,0.35216 -99,-4e-5 -139.30321,-0.15854 -89.56271,-0.35223 z m -0.66672,-18.66667 c 49.37382,-0.19376 129.77382,-0.19372 178.66667,8e-5 48.89285,0.19379 8.49609,0.35232 -89.77057,0.3523 -98.26667,-4e-5 -138.26991,-0.1586 -88.8961,-0.35238 z M 801.85563,490.66668 c 0,-9.9 0.20989,-13.95 0.46644,-9 0.25654,4.95 0.25654,13.05 0,18 -0.25655,4.95 -0.46644,0.9 -0.46644,-9 z m 0.0572,-145.33333 c 0,-18.70001 0.18753,-26.35001 0.41673,-17.00001 0.2292,9.35001 0.2292,24.65001 0,34.00001 -0.2292,9.35 -0.41673,1.7 -0.41673,-17 z M 61.806607,143.33334 c -0.004,-6.6 0.221402,-9.46811 0.501034,-6.37356 0.279632,3.09453 0.282956,8.49453 0.0073,12 -0.27557,3.50545 -0.504359,0.97356 -0.508423,-5.62644 z"
           id="path1441" />
        <path
           style="fill:#d8d8d8;stroke-width:1.33333"
           d="m 37.967951,426.00001 c 1.05e-4,-57.2 0.164365,-80.40544 0.36502,-51.56762 0.200656,28.8378 0.200569,75.6378 -1.92e-4,104 -0.200762,28.36219 -0.364935,4.76763 -0.364828,-52.43238 z m 763.831259,92.66667 c 0,-6.23333 0.22968,-8.78333 0.5104,-5.66666 0.28071,3.11666 0.28071,8.21666 0,11.33333 -0.28072,3.11667 -0.5104,0.56667 -0.5104,-5.66667 z M 635.30049,426.00001 c 1.1e-4,-55.73333 0.16472,-78.3389 0.36579,-50.2346 0.20108,28.10431 0.20099,73.70431 -2e-4,101.33334 -0.20119,27.62903 -0.36569,4.6346 -0.36559,-51.09874 z m 17.28443,19.33334 c 0,-20.16667 0.18532,-28.41667 0.41184,-18.33334 0.22651,10.08334 0.22651,26.58334 0,36.66667 -0.22652,10.08334 -0.41184,1.83334 -0.41184,-18.33333 z m 149.35027,-19.33334 c -4.3e-4,-26.4 0.17766,-37.38897 0.39576,-24.41996 0.2181,12.96903 0.21845,34.56903 7.8e-4,48.00001 -0.21766,13.43098 -0.3961,2.81996 -0.39654,-23.58005 z M 652.46588,381.33335 c 0,-6.23334 0.22968,-8.78334 0.5104,-5.66667 0.28071,3.11667 0.28071,8.21667 0,11.33333 -0.28072,3.11667 -0.5104,0.56667 -0.5104,-5.66666 z"
           id="path1439" />
        <path
           style="fill:#c6c6c6;stroke-width:1.33333"
           d="m 232.33333,449.66922 c 11.55,-0.22198 30.45,-0.22198 42,0 11.55,0.22197 2.1,0.40358 -21,0.40358 -23.1,0 -32.55,-0.18161 -21,-0.40358 z m 166.66667,0 c 11.55,-0.22198 30.45,-0.22198 42,0 11.55,0.22197 2.1,0.40358 -21,0.40358 -23.1,0 -32.55,-0.18161 -21,-0.40358 z"
           id="path1437" />
        <path
           style="fill:#aaaaaa;stroke-width:1.33333"
           d="m 239.77115,389.66679 c 53.77413,-0.19295 141.37413,-0.19292 194.66666,5e-5 53.29254,0.19297 9.29552,0.35084 -97.77114,0.35081 -107.06667,-4e-5 -150.66966,-0.15792 -96.89552,-0.35086 z"
           id="path1435" />
        <path
           style="fill:#8a8a8a;stroke-width:1.33333"
           d="m 821.96031,428.66668 c -1.6e-4,-45.46667 0.16732,-64.25993 0.37216,-41.76281 0.20485,22.49712 0.20498,59.69712 3e-4,82.66667 -0.20469,22.96954 -0.37229,4.56281 -0.37246,-40.90386 z M 235.10477,283.0001 c 56.34096,-0.19252 148.14096,-0.19249 204,6e-5 55.85904,0.19254 9.7619,0.35006 -102.4381,0.35004 -112.2,-3e-5 -157.90286,-0.15758 -101.5619,-0.3501 z"
           id="path1433" />
        <path
           style="fill:#787878;stroke-width:1.33333"
           d="m 821.83209,524.66668 c 0.003,-8.06666 0.22262,-11.19476 0.48802,-6.95132 0.2654,4.24344 0.26293,10.84345 -0.005,14.66667 -0.26841,3.82323 -0.48556,0.35132 -0.48254,-7.71535 z m 0.0193,-194.66667 c 0.003,-9.53333 0.2147,-13.25839 0.47194,-8.27788 0.25724,4.98049 0.25532,12.78049 -0.004,17.33334 -0.25957,4.55282 -0.47004,0.47788 -0.4677,-9.05546 z"
           id="path1431" />
        <path
           style="fill:#159f84;stroke-width:1.33333"
           d="m 769.16592,556.37285 c -2.65875,-1.30506 -28.37016,-15.57076 -57.13645,-31.70157 -47.63776,-26.71304 -52.58482,-29.8107 -55.46944,-34.73294 l -3.16708,-5.40422 -0.2621,-58.00555 -0.26209,-58.00556 3.03119,-5.39325 c 3.56598,-6.34484 1.3199,-4.94461 66.10005,-41.20732 53.02677,-29.68339 56.29313,-31.00936 66.19563,-26.87184 2.6324,1.09989 6.51528,4.26536 8.62861,7.03438 l 3.84243,5.03458 0.41102,35.50925 0.41102,35.50926 -7.07768,3.17205 c -3.89274,1.74463 -11.41063,5.16357 -16.70643,7.59764 -5.2958,2.43407 -10.4258,4.42559 -11.4,4.42559 -0.9742,0 -2.34127,0.54528 -3.03793,1.21172 -0.69667,0.66645 -10.56667,5.24352 -21.93334,10.17125 -11.36666,4.92773 -24.86666,10.89305 -30,13.25628 -5.13333,2.36321 -11.6369,5.05036 -14.4524,5.97145 l -5.11906,1.6747 54.78573,24.06545 54.78573,24.06546 v 16.45852 c 0,9.05217 -0.21236,16.4585 -0.4719,16.4585 -0.53483,0 -20.32463,-9.1429 -40.19476,-18.57004 -7.33334,-3.4792 -19.63334,-9.22413 -27.33334,-12.76652 -7.7,-3.54237 -19.37784,-9.01296 -25.95074,-12.15686 -6.57291,-3.14391 -12.22291,-5.44403 -12.55556,-5.11139 -0.33264,0.33265 -0.3548,0.77205 -0.0492,0.97647 0.30556,0.20441 7.75556,5.09422 16.55556,10.86625 8.8,5.77203 16.2,11.00479 16.44444,11.62835 0.24445,0.62356 1.02737,1.13374 1.73982,1.13374 1.61632,0 17.6541,10.75106 18.26018,12.24086 0.24445,0.60086 1.1813,1.09248 2.08192,1.09248 0.90061,0 2.80061,1.05 4.22222,2.33333 1.42162,1.28333 4.22462,3.17931 6.22891,4.21327 2.00429,1.03396 4.8292,2.98396 6.27759,4.33333 1.44837,1.34937 3.0004,2.4534 3.44893,2.4534 1.24863,0 13.2358,8.36549 13.74043,9.58905 0.24445,0.59268 1.00368,1.07762 1.68718,1.07762 0.68351,0 4.59646,2.22674 8.69544,4.94832 l 7.4527,4.94831 -0.55959,7.73628 c -1.18857,16.43177 -17.30004,25.90029 -31.88759,18.73992 z M 663.3122,404.76868 c 11.05067,-5.33935 40.64084,-18.89144 52.6878,-24.13065 9.63303,-4.1894 13.21129,-6.59744 8,-5.3837 -30.15772,7.02394 -66.52219,15.64842 -68.33333,16.20646 -1.87923,0.57901 -2.33334,2.25837 -2.33334,8.62908 0,9.13388 0.38487,9.31433 9.97887,4.67881 z M 126.11853,385.23104 c -3.43848,-4.0864 -3.45186,-4.19689 -3.45186,-28.51001 v -24.40771 l 9.66666,-0.82107 c 5.31667,-0.45157 43.26667,-2.93623 84.33334,-5.52144 41.06666,-2.58521 77.06666,-5.14116 80,-5.67987 4.02046,-0.73837 -165.01361,-12.80324 -173,-12.34794 -3.25163,0.18537 -0.87228,-16.27584 2.89743,-20.04555 l 3.89744,-3.89744 H 336.66667 542.8718 l 3.92648,3.92648 3.92648,3.92649 -0.36237,25.73178 -0.36239,25.73177 -82.66667,5.58011 c -45.46666,3.06907 -85.91666,5.62285 -89.88889,5.67508 -3.97221,0.0523 -6.90589,0.41129 -6.51927,0.79792 0.77803,0.77801 29.90679,2.89569 109.07483,7.92979 28.96667,1.84192 56.71667,3.71396 61.66667,4.16009 l 9,0.81113 v 6.63391 c 0,5.55444 -0.63419,7.26811 -3.89744,10.53135 l -3.89743,3.89744 H 336.22109 129.57038 Z"
           id="path1429" />
        <path
           style="fill:#656565;stroke-width:1.33333"
           d="m 17.866588,496.66668 c 0.0019,-11 0.208383,-15.32257 0.45892,-9.60572 0.250539,5.71684 0.249011,14.71684 -0.0033,20 -0.252468,5.28315 -0.457455,0.60572 -0.455587,-10.39428 z m 0,-40 c 0.0019,-11 0.208383,-15.32257 0.45892,-9.60572 0.250539,5.71684 0.249011,14.71684 -0.0033,20 -0.252468,5.28315 -0.457455,0.60572 -0.455587,-10.39428 z m 0,-40 c 0.0019,-11 0.208383,-15.32257 0.45892,-9.60572 0.250539,5.71684 0.249011,14.71684 -0.0033,20 -0.252468,5.28315 -0.457455,0.60572 -0.455587,-10.39428 z m 0.04907,-55.33333 c 0,-19.43334 0.186393,-27.38334 0.414205,-17.66667 0.227813,9.71667 0.227813,25.61667 0,35.33333 -0.227812,9.71667 -0.414205,1.76667 -0.414205,-17.66666 z m 103.971122,-6.66667 c 0,-13.56667 0.19799,-19.11667 0.43998,-12.33333 0.24198,6.78333 0.24198,17.88333 0,24.66666 -0.24199,6.78334 -0.43998,1.23334 -0.43998,-12.33333 z m 429.33333,-36 c 0,-13.56667 0.198,-19.11667 0.43998,-12.33334 0.24199,6.78334 0.24199,17.88334 0,24.66667 -0.24198,6.78334 -0.43998,1.23333 -0.43998,-12.33333 z"
           id="path1427" />
        <path
           style="fill:#555555;stroke-width:1.33333"
           d="m 144,472.00002 v -81.33334 h 192.66667 192.66666 v 81.33334 81.33333 H 336.66667 144 Z m 124.05969,17.43332 c 14.10751,-5.36044 25.03547,-19.20699 27.17542,-34.43332 l 0.79641,-5.66667 H 253.16785 210.3042 l 0.83896,6.12083 c 3.67676,26.82488 31.70608,43.55837 56.91653,33.97916 z m 167.08642,-0.14446 c 14.09892,-5.27508 25.01097,-18.8529 27.02106,-33.6222 l 0.86196,-6.33333 h -42.99929 -42.99929 l 0.94122,6.27656 c 4.02279,26.8258 31.78396,43.17873 57.17434,33.67897 z M 551.15364,355.33335 c 0.004,-7.33334 0.22737,-10.16323 0.49756,-6.28864 0.2702,3.87458 0.26736,9.87458 -0.007,13.33333 -0.27366,3.45875 -0.49472,0.28864 -0.49125,-7.04469 z M 121.80661,319.33334 c -0.004,-6.6 0.2214,-9.4681 0.50103,-6.37356 0.27963,3.09454 0.28296,8.49454 0.007,12 -0.27551,3.50546 -0.5043,0.97356 -0.50836,-5.62644 z M 302.20372,205.66667 c -0.34117,-0.55 9.97341,-0.84629 22.92131,-0.65841 43.4745,0.63079 47.78778,1.10301 12.62033,1.38169 -19.20672,0.1522 -35.20047,-0.17328 -35.54164,-0.72328 z M 188.27328,178.88879 c -30.41483,-10.85476 -34.00544,-51.45079 -5.94471,-67.21176 29.562,-16.604193 63.90375,12.39753 52.90463,44.67816 -6.32955,18.57619 -28.38903,29.16138 -46.95992,22.5336 z m 274.62372,-0.0144 c -19.88705,-7.0956 -29.99257,-31.15441 -21.08893,-50.20772 16.93914,-36.248853 70.75358,-24.34861 70.50356,15.59079 -0.16051,25.63837 -25.27278,43.23049 -49.41463,34.61688 z"
           id="path1425" />
        <path
           style="fill:#474747;stroke-width:1.33333"
           d="m 248.33333,667.00018 c 48.95,-0.19381 129.05,-0.19381 178,0 48.95,0.19382 8.9,0.3524 -89,0.3524 -97.9,0 -137.95,-0.15858 -89,-0.3524 z M 143.29335,472.00002 c 0,-45.10001 0.16766,-63.55001 0.3726,-41.00001 0.20492,22.55001 0.20492,59.45001 0,82.00001 -0.20494,22.55 -0.3726,4.1 -0.3726,-41 z m 386.66666,0 c 0,-45.10001 0.16767,-63.55001 0.3726,-41.00001 0.20492,22.55001 0.20492,59.45001 0,82.00001 -0.20493,22.55 -0.3726,4.1 -0.3726,-41 z"
           id="path1423" />
        <path
           style="fill:#0c5a4b;stroke-width:1.33333"
           d="m 748.36112,494.19134 c -28.76804,-19.26355 -52.69251,-35.41159 -53.16545,-35.88454 -0.47295,-0.47296 19.46454,8.62723 44.30554,20.22263 24.841,11.5954 48.91546,22.79471 53.49879,24.88735 l 8.33333,3.8048 v 11.05589 c 0,6.08073 -0.15,11.02947 -0.33333,10.99719 -0.18333,-0.0323 -23.87083,-15.81978 -52.63888,-35.08332 z m 36.30555,-28.00646 c -8.8,-3.87128 -32.2,-14.14168 -52,-22.82312 -19.8,-8.68144 -36.48227,-16.2016 -37.0717,-16.71145 -0.58944,-0.50987 6.61056,-4.30682 16,-8.43767 9.38943,-4.13085 33.2717,-14.64248 53.0717,-23.35917 l 36,-15.84854 0.36374,23.07759 c 0.20007,12.69267 0.20007,33.89187 0,47.10932 l -0.36374,24.03174 z M 653.33333,400.15473 v -7.84529 L 671,388.06481 c 9.71667,-2.33454 23.96667,-5.71154 31.66667,-7.50445 7.7,-1.79292 15.95,-3.79629 18.33333,-4.45196 6.26263,-1.72288 5.327,0.20029 -1.33333,2.74067 -4.71488,1.79833 -29.48223,12.90501 -58.59352,26.27568 -8.17766,3.75594 -7.73982,4.0371 -7.73982,-4.97002 z M 512,365.29383 c -18.7,-1.28967 -40.3,-2.73787 -48,-3.21824 -7.7,-0.48039 -17.6,-1.13651 -22,-1.45807 -4.4,-0.32155 -18.2,-1.21851 -30.66667,-1.99324 -25.8919,-1.60901 -35.66188,-2.50836 -36.51478,-3.36128 -0.32799,-0.32797 1.75368,-0.59868 4.62589,-0.60157 2.87223,-0.003 22.02223,-1.17254 42.55556,-2.5992 20.53333,-1.42668 44.23333,-2.9494 52.66667,-3.38384 C 483.1,348.24395 491.8,347.63771 494,347.33119 c 2.2,-0.30651 11.2,-0.93839 20,-1.40416 8.8,-0.46578 20.65,-1.26996 26.33333,-1.78708 l 10.33334,-0.94022 v 12.40015 c 0,10.98959 -0.26543,12.37959 -2.33334,12.21945 C 547.05,367.72 530.7,366.58348 512,365.29383 Z M 122.66667,319.901 v -12.21811 l 13,0.87013 c 7.15,0.47858 20.8,1.42135 30.33333,2.09503 9.53333,0.67369 22.73333,1.56343 29.33333,1.97719 6.6,0.41376 29.4,1.93588 50.66667,3.38249 21.26667,1.44661 41.96667,2.68824 46,2.75917 11.93652,0.20994 2.88592,2.01864 -15.33333,3.06428 -24.47291,1.40455 -134.82471,8.64855 -145,9.51847 l -9,0.76944 z"
           id="path1419" />
        <path
           style="fill:#393939;stroke-width:1.33333"
           d="m 247.77057,645.66681 c 49.37382,-0.19376 129.77382,-0.19372 178.66667,8e-5 48.89285,0.19379 8.49609,0.35232 -89.77057,0.35229 -98.26667,-4e-5 -138.26991,-0.1586 -88.8961,-0.35237 z m -7.99942,-92.00002 c 53.77413,-0.19294 141.37413,-0.19292 194.66666,6e-5 53.29254,0.19297 9.29552,0.35084 -97.77114,0.35081 -107.06667,-4e-5 -150.66966,-0.15792 -96.89552,-0.35087 z M 633.96833,426.00001 c 1.1e-4,-57.93333 0.16419,-81.4387 0.36464,-52.23416 0.20046,29.20455 0.20038,76.60455 -1.8e-4,105.33334 -0.20055,28.72879 -0.36456,4.83416 -0.36446,-53.09918 z"
           id="path1417" />
        <path
           style="fill:#272727;stroke-width:1.33333"
           d="m 39.300893,426.00001 c 1.1e-4,-56.46666 0.16454,-79.37217 0.365402,-50.90112 0.200862,28.47107 0.200773,74.67107 -1.98e-4,102.66667 -0.20097,27.99562 -0.365312,4.70112 -0.365204,-51.76555 z"
           id="path1415" />
        <path
           style="fill:#1c1c1c;stroke-width:1.33333"
           d="M 142.66667,644.42962 C 93.83066,636.12764 57.339433,603.47763 43.088341,555.33335 39.590047,543.51511 38.674885,320.08524 42.056243,303.35429 48.659544,270.68117 68.793857,241.80268 97.127491,224.36601 l 10.734719,-6.6062 -4.63863,-6.88798 C 79.206364,175.20831 75.945236,129.4361 94.706017,91.321834 129.85378,19.91589 227.35535,4.4128182 284.14321,61.200691 c 34.88391,34.883906 43.93202,88.449519 22.50992,133.260699 -2.92589,6.12043 -5.3198,11.37043 -5.3198,11.66667 0,0.29624 16.55,0.53861 36.77778,0.53861 20.22778,0 36.57778,-0.45 36.33333,-1 -0.24444,-0.55 -2.73821,-5.72517 -5.54171,-11.50037 C 327.98139,109.86834 400.9922,12.910206 494.08292,27.927354 578.55041,41.553425 620.76523,137.82884 573.43515,208.89866 l -6.55667,9.84533 3.56076,2.16418 c 13.80144,8.3883 19.42399,12.68889 28.26495,21.61936 16.67561,16.84445 27.80813,37.52961 32.51538,60.41627 3.17938,15.45816 3.17599,230.68023 -0.004,246.11243 -9.34372,45.34598 -42.01204,79.49467 -89.21569,93.25851 -7.55388,2.20259 -386.99639,4.21214 -399.33333,2.11488 z m 388,-171.09627 v -81.33334 l 3,-0.008 c 6.85801,-0.0169 13.15434,-2.8485 15.73104,-7.07438 3.52524,-5.78154 4.0371,-88.94265 0.58849,-95.61154 -3.5732,-6.90925 5.11615,-6.63941 -213.82419,-6.63941 H 129.48204 l -3.74102,3.21789 L 122,289.10245 v 47.56423 47.56423 l 3.69145,3.17525 c 2.27485,1.95673 6.24029,3.51336 10.33334,4.05632 l 6.64188,0.88108 v 81.16156 81.16157 h 194 194 z M 216.15121,178.99497 c 24.22271,-10.8684 30.05055,-43.74069 11.0297,-62.21352 -24.463,-23.758148 -65.08978,-6.76927 -65.08978,27.21856 0,27.85448 28.64591,46.39797 54.06008,34.99496 z m 277.01191,-1.24378 c 27.27407,-13.94848 27.01579,-53.68598 -0.44023,-67.72751 -25.76184,-13.17509 -55.38956,5.15337 -55.38956,34.26539 0,28.9374 29.77832,46.78534 55.82979,33.46212 z"
           id="path1413" />
      </g>
    </g>
  </g>
</svg>
